<svg width="15" height="20" viewBox="0 0 15 20" fill="none" xmlns="http://www.w3.org/2000/svg">
<path d="M5.52679 19.236C5.18096 18.968 4.95596 18.5431 4.91009 18.0711C4.91009 17.5711 5.32033 17.3421 5.69969 17.2441C6.14344 17.1381 6.59598 17.0841 7.04944 17.0841H8.52719C8.96565 17.0991 9.39614 17.2201 9.7896 17.4401H9.8134C10.1425 17.7431 10.1981 18.2871 9.93956 18.6671C9.46846 19.431 8.71598 19.912 7.89552 19.974C7.05036 20.088 6.2008 19.825 5.52679 19.236ZM3.25417 15.7242C2.29167 15.6222 1.39799 15.1262 0.736332 14.3293C0.238765 13.6513 -0.0223226 12.7913 0.00149714 11.9104V11.7104C0.0323745 11.0554 0.214971 10.4205 0.530802 9.8705C1.0566 9.20354 1.41917 8.39357 1.5815 7.51961C1.62914 6.84364 1.58151 6.15967 1.62915 5.4837C1.92822 2.23987 4.69221 0 7.45442 0H7.53292C10.2678 0 13.0811 2.23987 13.3732 5.48471C13.4208 6.15167 13.3732 6.84465 13.4208 7.52062C13.5761 8.39257 13.9334 9.20251 14.4548 9.86648C14.7794 10.4124 14.9673 11.0484 14.9999 11.7064V11.9064C15.0044 12.7943 14.7238 13.6533 14.2104 14.3243C13.5566 15.1142 12.6736 15.6092 11.7234 15.7192C10.3189 15.9232 8.90477 16.0262 7.48882 16.0262C6.07111 16.0272 4.65865 15.9272 3.25417 15.7242Z" fill="#C4C4C4"/>
</svg>
