<svg width="21" height="19" viewBox="0 0 21 19" fill="none" xmlns="http://www.w3.org/2000/svg">
<path d="M14.5219 18.008H5.49191C4.01391 18.086 2.5639 17.579 1.4559 16.597C0.456902 15.54 -0.0671027 14.121 0.00689725 12.669V5.347C-0.0671027 3.895 0.456902 2.47499 1.4559 1.41899C2.5639 0.436992 4.01391 -0.0700189 5.49191 0.00798106H14.5229C16.0019 -0.0710189 17.4529 0.439004 18.5589 1.425C19.5599 2.495 20.0829 3.926 20.0069 5.39H15.7759V5.424C14.8369 5.421 13.9349 5.786 13.2629 6.441C12.5969 7.082 12.2199 7.966 12.2199 8.89C12.2469 10.828 13.8369 12.379 15.7759 12.357H20.0069V12.668C20.0809 14.12 19.5569 15.539 18.5579 16.596C17.4509 17.577 16.0009 18.084 14.5219 18.008ZM4.74591 3.899C4.33291 3.895 3.9929 4.222 3.9819 4.635C3.9879 5.052 4.32791 5.38799 4.74591 5.38899H10.3909C10.8019 5.38899 11.1359 5.055 11.1359 4.644C11.1359 4.233 10.8019 3.899 10.3909 3.899H4.74591ZM19.2599 10.866H15.8259C14.8529 10.876 14.0009 10.216 13.7669 9.27199C13.6539 8.68399 13.8129 8.07698 14.1999 7.61998C14.5919 7.15498 15.1679 6.88499 15.7759 6.87999H19.2599C19.6669 6.87599 19.9999 7.19998 20.0069 7.60698V10.138C19.9959 10.542 19.6649 10.863 19.2599 10.866ZM15.9179 8.05C15.7199 8.049 15.5299 8.12498 15.3879 8.26198C15.2449 8.39898 15.1639 8.588 15.1629 8.786C15.1689 9.204 15.5099 9.53899 15.9279 9.53999H16.2569C16.6679 9.53999 17.0019 9.207 17.0019 8.795C17.0019 8.384 16.6689 8.05 16.2579 8.05H16.2569H15.9179Z" fill="white"/>
</svg>
