<svg width="22" height="24" viewBox="0 0 22 24" fill="none" xmlns="http://www.w3.org/2000/svg">
<g clip-path="url(#clip0_26_2)">
<path d="M9.06641 5.06241V2.3671C9.06641 2.01113 8.77784 1.72256 8.42188 1.72256C8.06591 1.72256 7.77734 2.01113 7.77734 2.3671V5.06241C7.77734 5.41837 8.06591 5.70694 8.42188 5.70694C8.77784 5.70694 9.06641 5.41837 9.06641 5.06241Z" fill="#C4C4C4"/>
<path d="M14.2227 5.06241V2.3671C14.2227 2.01113 13.9341 1.72256 13.5781 1.72256C13.2222 1.72256 12.9336 2.01113 12.9336 2.3671V5.06241C12.9336 5.41837 13.2222 5.70694 13.5781 5.70694C13.9341 5.70694 14.2227 5.41837 14.2227 5.06241Z" fill="#C4C4C4"/>
<path d="M11.6445 3.57803V0.648346C11.6445 0.292381 11.356 0.0038147 11 0.0038147C10.644 0.0038147 10.3555 0.292381 10.3555 0.648346V3.57803C10.3555 3.934 10.644 4.22257 11 4.22257C11.356 4.22257 11.6445 3.934 11.6445 3.57803Z" fill="#C4C4C4"/>
<path d="M17.5799 13.5892C16.1666 12.0474 14.3787 11.0631 12.4402 10.7365C11.9945 10.6615 11.6446 10.2907 11.6446 9.83864V9.61987C11.6446 9.26391 11.3561 8.97534 11.0001 8.97534C10.6441 8.97534 10.3556 9.26391 10.3556 9.61987V9.83864C10.3556 10.2907 10.0057 10.6615 9.55995 10.7365C7.62145 11.0631 5.83357 12.0474 4.42028 13.5892C3.28589 14.8268 2.4807 16.3276 2.0523 17.9653C1.7604 19.0813 2.69217 20.064 3.84566 20.064H18.1545C19.308 20.064 20.2398 19.0813 19.9479 17.9653C19.5195 16.3275 18.7143 14.8267 17.5799 13.5892Z" fill="#C4C4C4"/>
<path d="M20.7375 21.4705H1.26248C0.565233 21.4705 0 22.0357 0 22.733C0 23.4302 0.565233 23.9955 1.26248 23.9955H20.7375C21.4348 23.9955 22 23.4302 22 22.733C22 22.0357 21.4348 21.4705 20.7375 21.4705Z" fill="#C4C4C4"/>
</g>
<defs>
<clipPath id="clip0_26_2">
<rect width="22" height="24" fill="white"/>
</clipPath>
</defs>
</svg>
