<svg width="20" height="19" viewBox="0 0 20 19" fill="none" xmlns="http://www.w3.org/2000/svg">
<path d="M10.0331 19L9.77415 18.84C7.48058 17.416 5.34495 15.753 3.40431 13.879C2.05956 12.5201 1.03277 10.8811 0.393887 9.08011C-0.176007 7.35913 -0.127034 5.49212 0.537842 3.80514C1.21072 2.12015 2.59848 0.825185 4.32516 0.26919C4.6131 0.169191 4.91103 0.099177 5.21397 0.0601773H5.33394C5.61189 0.0191777 5.89286 -0.000819647 6.17381 0.000180343H6.28378C6.90666 0.0181802 7.52354 0.129196 8.11443 0.330194H8.17344C8.20643 0.345194 8.23639 0.365191 8.26339 0.390191C8.48134 0.455191 8.69331 0.543176 8.89327 0.651175L9.27424 0.82018C9.37323 0.877179 9.4672 0.940181 9.55819 1.01018C9.61618 1.05218 9.66416 1.08719 9.70416 1.11019L9.74516 1.13417C9.83515 1.18317 9.9211 1.23919 10.0041 1.30019C11.0939 0.457194 12.4317 0.000180343 13.8094 0.000180343H13.8533C14.4852 -0.00481961 15.1142 0.0941951 15.713 0.291193C17.4277 0.842188 18.8055 2.13317 19.4673 3.80816C20.1202 5.49614 20.1742 7.35613 19.6223 9.08011C18.9924 10.8891 17.9646 12.5321 16.6139 13.8901C14.6812 15.759 12.5596 17.421 10.283 18.85L10.0331 19ZM14.9391 3.11816C14.5962 3.12116 14.2933 3.33816 14.1813 3.66116C14.0423 4.08215 14.2633 4.53914 14.6812 4.69014C15.3291 4.94114 15.754 5.56514 15.751 6.26013V6.29013C15.731 6.51413 15.799 6.73612 15.941 6.91012C16.0849 7.07812 16.2899 7.18212 16.5099 7.20012C16.9278 7.18412 17.2687 6.85712 17.2997 6.44012V6.32113C17.3347 4.92715 16.4899 3.66215 15.1911 3.16015C15.1101 3.13115 15.0251 3.11816 14.9391 3.11816Z" fill="#C4C4C4"/>
</svg>
