<svg width="14" height="17" viewBox="0 0 14 17" fill="none" xmlns="http://www.w3.org/2000/svg">
<path d="M7.04205 16.999C6.90405 16.994 6.77004 16.952 6.65204 16.881C4.77804 15.669 3.13805 14.129 1.81405 12.332C0.694053 10.825 0.0610272 9.011 2.72105e-05 7.134C-0.00697279 4.587 1.33704 2.22798 3.53204 0.93698C5.71004 -0.33302 8.40904 -0.310013 10.566 0.993987C11.623 1.65499 12.493 2.576 13.091 3.668C13.693 4.77 14.006 6.00602 14 7.26102C13.804 9.83401 12.667 12.245 10.808 14.036C9.80204 15.104 8.67503 16.05 7.44903 16.856C7.32403 16.927 7.18505 16.977 7.04205 16.999ZM6.99405 4.84701C6.36205 4.84601 5.75603 5.10101 5.31503 5.55301C4.62903 6.25001 4.42505 7.288 4.79605 8.194C5.15205 9.098 6.02403 9.692 6.99603 9.694H7.01303C7.64003 9.695 8.24105 9.44301 8.68005 8.99301C9.62505 8.02101 9.60203 6.467 8.63003 5.522C8.42103 5.32 8.17805 5.15602 7.91205 5.03702C7.62105 4.91302 7.30805 4.84901 6.99405 4.84701Z" fill="#DB166E"/>
</svg>
