<svg width="16" height="20" viewBox="0 0 16 20" fill="none" xmlns="http://www.w3.org/2000/svg">
<path d="M11.7207 19.9902H4.27783C1.56303 19.9902 0.00623166 18.2276 0.00623166 15.1542V4.83294C-0.0559326 3.52704 0.349036 2.24609 1.12964 1.27691C1.98484 0.394654 3.11891 -0.0629564 4.27783 0.00698469H11.7215C14.4346 0.00698469 15.9913 1.76652 15.9913 4.83294V15.1542C16.065 16.4661 15.6663 17.757 14.8848 18.7342C14.0261 19.6185 12.8831 20.0741 11.7207 19.9902ZM4.44654 13.7304C4.2041 13.7294 3.97942 13.8713 3.85331 14.1041C3.64728 14.4708 3.7441 14.9564 4.07002 15.1872C4.17925 15.2652 4.30446 15.3071 4.43323 15.3091C4.46254 15.3101 4.49274 15.3081 4.52204 15.3031H11.48C11.8645 15.2542 12.1416 14.8635 12.0981 14.4298C12.0617 14.0641 11.805 13.7754 11.48 13.7344H4.5176C4.49451 13.7314 4.47051 13.7304 4.44654 13.7304ZM4.5176 9.17727C4.13484 9.17727 3.82402 9.52598 3.82402 9.95762C3.82402 10.3883 4.13484 10.737 4.5176 10.737H11.48C11.8627 10.737 12.1736 10.3883 12.1736 9.95762C12.1736 9.52598 11.8627 9.17727 11.48 9.17727H4.5176ZM4.5176 4.65209V4.66206C4.13484 4.66206 3.82491 5.0108 3.82491 5.44143C3.82491 5.87107 4.13484 6.21977 4.5176 6.21977H7.17289C7.55742 6.21977 7.87002 5.86906 7.87002 5.43543C7.87002 5.00279 7.55742 4.65108 7.17289 4.65108L4.5176 4.65209Z" fill="#C4C4C4"/>
</svg>
