<svg width="19" height="20" viewBox="0 0 19 20" fill="none" xmlns="http://www.w3.org/2000/svg">
<path d="M10.1841 19.9992H8.81614C8.28314 19.9972 7.77315 19.7852 7.39515 19.4092C7.02215 19.0382 6.81313 18.5342 6.81513 18.0092C6.80313 16.8992 5.89513 16.0082 4.78513 16.0182C4.41813 16.0172 4.05715 16.1182 3.74414 16.3102C3.27114 16.5682 2.71713 16.6402 2.19413 16.5102C1.67713 16.3702 1.23314 16.0372 0.954136 15.5802L0.315129 14.4492C0.0141288 13.9882 -0.0758712 13.4212 0.0651288 12.8882C0.211129 12.3542 0.569142 11.9032 1.05414 11.6382C1.36614 11.4682 1.62615 11.2152 1.80515 10.9092C2.32815 9.96318 1.99314 8.7732 1.05414 8.2392C0.596142 7.9822 0.261143 7.55218 0.123143 7.04618C-0.0138573 6.54818 0.0561288 6.01619 0.315129 5.56919L0.954136 4.44919C1.22514 3.97819 1.67414 3.63618 2.20014 3.49918C2.72814 3.36118 3.28814 3.43618 3.76014 3.71018C4.07414 3.87818 4.42513 3.96819 4.78113 3.97019C5.31813 3.96919 5.83313 3.7622 6.22013 3.3902C6.59713 3.0212 6.80915 2.51718 6.81015 1.99118C6.82515 0.877184 7.74013 -0.0148136 8.85413 0.000186443H10.2542C10.7842 -0.00381356 11.2951 0.201201 11.6751 0.571201C12.0641 0.940201 12.2812 1.45518 12.2752 1.99118C12.2912 3.10318 13.2031 3.99418 14.3161 3.98218C14.6701 3.97718 15.0171 3.88419 15.3261 3.71118C15.6271 3.54919 15.9631 3.46418 16.3041 3.46418C17.0211 3.46218 17.6861 3.83718 18.0551 4.45118L18.7361 5.62119C18.9101 5.92219 19.0031 6.26318 19.0051 6.61118C19.0031 7.32718 18.6121 7.98518 17.9851 8.33118C17.6751 8.50418 17.4171 8.7562 17.2351 9.0622C16.7101 10.0072 17.0451 11.1992 17.9851 11.7322C18.9351 12.2722 19.2711 13.4782 18.7361 14.4322L18.0551 15.5622C17.6911 16.1822 17.0251 16.5632 16.3051 16.5622C15.9471 16.5642 15.5951 16.4702 15.2851 16.2902C14.9721 16.1192 14.6211 16.0262 14.2641 16.0202C13.7261 16.0192 13.2091 16.2312 12.8251 16.6102C12.4391 16.9762 12.2211 17.4872 12.2251 18.0202C12.2071 19.1282 11.2941 20.0142 10.1841 19.9992ZM9.52814 7.2652C8.78714 7.2612 8.07513 7.54819 7.54413 8.06519C6.74513 8.84219 6.50415 10.0292 6.93515 11.0562C7.37515 12.0942 8.39714 12.7652 9.52414 12.7562H9.57316C10.3002 12.7562 10.9981 12.4692 11.5141 11.9562C12.0431 11.4482 12.3421 10.7482 12.3451 10.0162C12.3421 8.89518 11.6582 7.89018 10.6162 7.47718C10.2712 7.33618 9.90114 7.2642 9.52814 7.2652Z" fill="white"/>
</svg>
