<svg width="20" height="19" viewBox="0 0 20 19" fill="none" xmlns="http://www.w3.org/2000/svg">
<path d="M15.9193 11.82C15.6603 12.071 15.5412 12.434 15.6002 12.79L16.4903 17.71C16.5643 18.127 16.3882 18.549 16.0402 18.79C15.6982 19.04 15.2433 19.071 14.8703 18.87L10.4403 16.56C10.2873 16.479 10.1163 16.434 9.94027 16.429H9.66927C9.57427 16.443 9.48222 16.473 9.39822 16.519L4.96822 18.84C4.74922 18.95 4.50126 18.989 4.25826 18.95C3.66626 18.838 3.27125 18.274 3.36825 17.679L4.25826 12.759C4.31826 12.401 4.19823 12.035 3.93923 11.78L0.329247 8.28C0.027247 7.988 -0.0777725 7.54699 0.0592275 7.14999C0.193227 6.75399 0.536242 6.46499 0.949242 6.39999L5.91927 5.67899C6.29727 5.63999 6.62922 5.40998 6.79922 5.06998L8.98922 0.579987C9.04022 0.479987 9.10726 0.387998 9.18826 0.309998L9.27926 0.23999C9.32626 0.18899 9.38023 0.144985 9.43923 0.109985L9.54824 0.0699768L9.71822 0H10.1392C10.5152 0.039 10.8453 0.264976 11.0192 0.599976L13.2392 5.06998C13.3982 5.39698 13.7102 5.62399 14.0692 5.67899L19.0393 6.39999C19.4593 6.45999 19.8102 6.74999 19.9492 7.14999C20.0802 7.55099 19.9673 7.992 19.6593 8.28L15.9193 11.82Z" fill="white"/>
</svg>
