<svg width="16" height="20" viewBox="0 0 16 20" fill="none" xmlns="http://www.w3.org/2000/svg">
<path d="M6.64916 20C6.38416 19.965 6.11614 19.948 5.84914 19.947C5.06114 19.907 4.27714 19.808 3.50414 19.653C1.83514 19.333 0.745148 18.763 0.277148 17.874C-0.0888518 17.169 -0.0928545 16.331 0.268145 15.623C0.727145 14.733 1.81714 14.155 3.50414 13.844C4.27814 13.692 5.06214 13.594 5.84914 13.55C7.28914 13.434 8.73516 13.434 10.1752 13.55C10.9592 13.596 11.7392 13.694 12.5101 13.844C14.1802 14.181 15.2691 14.733 15.7371 15.623C16.0881 16.319 16.0881 17.141 15.7371 17.838C15.2701 18.728 14.2232 19.315 12.4932 19.617C11.7222 19.772 10.9422 19.872 10.1572 19.917C9.43115 19.984 8.70116 20.012 7.97216 20H6.64916ZM2.75515 5.39902C2.71415 2.46002 5.06414 0.043 8.00414 0C10.9451 0.041 13.2972 2.45902 13.2562 5.39902C13.2962 8.34002 10.9451 10.757 8.00414 10.799C5.06414 10.755 2.71515 8.33902 2.75515 5.39902Z" fill="white"/>
</svg>
